<svg xmlns="http://www.w3.org/2000/svg" version="1.1" xmlns:xlink="http://www.w3.org/1999/xlink" xmlns:svgjs="http://svgjs.dev/svgjs" viewBox="0 0 7.721141672656467 6.962115464374637"><g transform="matrix(1,0,0,1,0.6108208363282333,4.920294628046404)"><rect width="7.721141672656467" height="6.962115464374637" x="-0.6108208363282335" y="-4.920294628046404" fill="#0e1425"></rect><path d="M333 23C333 23 333 0 363 0C393 0 393 23 393 23L393 301L670 712C670 712 674 720 674 724C674 741 665 750 649 750C635 750 632 746 628 740L363 352L105 740C105 740 101 750 84 750C65 750 55 740 55 722C55 718 59 710 59 710L333 301Z" fill="#ffffff" transform="matrix(0.0015,0,0,-0.0015,0,1.125)" fill-rule="nonzero"></path><path d="M641 168L708 19C712 10 722 0 743 0C769 0 769 13 769 19C769 25 766 33 766 33L446 729C440 743 430 756 408 756C384 756 378 746 369 727L50 33C50 33 47 27 47 23C47 11 55 0 73 0C98 0 103 9 108 19L175 168ZM408 684L616 223L200 223Z" fill="#ffffff" transform="matrix(0.0015,0,0,-0.0015,1.0110000000000001,1.125)" fill-rule="nonzero"></path><path d="M603 60C540 60 487 200 388 274C506 311 596 392 596 516C596 698 456 750 240 750L120 750C108 750 100 742 100 730L100 23C100 23 100 0 130 0C160 0 160 23 160 23L160 695L240 695C422 695 536 664 536 518C536 368 373 302 205 302C191 302 183 298 183 275C183 259 191 249 218 249C251 249 284 251 316 257C429 193 489 0 580 0C619 0 653 17 653 44C653 53 648 63 640 63C632 63 630 60 603 60Z" fill="#ffffff" transform="matrix(0.0015,0,0,-0.0015,2.25,1.125)" fill-rule="nonzero"></path><path d="M377 0C658 0 752 174 752 383C752 654 583 750 350 750L120 750C108 750 100 742 100 730L100 20C100 8 108 0 120 0ZM160 55L160 695L350 695C551 695 693 619 693 383C693 200 614 55 377 55Z" fill="#ffffff" transform="matrix(0.0015,0,0,-0.0015,3.3045,1.125)" fill-rule="nonzero"></path><path d="M160 727C160 727 160 750 130 750C100 750 100 727 100 727L100 23C100 23 100 0 130 0C160 0 160 23 160 23Z" fill="#ffffff" transform="matrix(0.0015,0,0,-0.0015,4.5675,1.125)" fill-rule="nonzero"></path><path d="M499 10C513 10 521 19 529 32L862 618L862 23C862 11 865 0 891 0C915 0 918 11 918 23L918 719C918 738 911 750 896 750C882 750 875 747 869 736L501 86L155 734C150 743 142 750 126 750C110 750 100 738 100 716L100 23C100 12 103 0 127 0C153 0 156 12 156 23L156 615L470 32C476 20 485 10 499 10Z" fill="#ffffff" transform="matrix(0.0015,0,0,-0.0015,4.9725,1.125)" fill-rule="nonzero"></path><g clip-path="url(&quot;#SvgjsClipPath1001&quot;)"><path d=" M 4.601386397256045 -3.4386393838549942 C 4.4039604031199815 -3.8870375691117687 3.993941128457868 -4.205818920329582 3.5107125164023714 -4.286615357089502 C 3.0189517617395776 -4.371518114281704 2.508926398293589 -4.216379634223202 2.1788351050117782 -3.8815838204972337 C 1.0500822822100986 -2.736724933586733 2.552761459373267 -0.9958309800511795 3.1184662059583363 -0.34046360853040536 C 3.1447638090859478 -0.3099795818427582 3.1830343394641503 -0.2924608121289758 3.22329399091403 -0.2924775000000004 C 3.2564684111287185 -0.2924759350812902 3.2885337920615463 -0.3044218613111678 3.313620783441845 -0.32612865800056134 C 3.3714690009811594 -0.3760609804738255 3.377886931866172 -0.46343404727134274 3.3279557339716934 -0.5212832354840717 C 2.511693763260741 -1.467002539358365 1.524851415974581 -2.824118319249372 2.3759821852716403 -3.687148757905182 C 2.6392692882464157 -3.9541441299359423 3.0663843972765505 -4.082273127915048 3.4637226592601387 -4.0136978240290375 C 3.8571366407447503 -3.947166453365192 4.190556364448414 -3.686905975077285 4.350607783932794 -3.321413803846463 C 4.721434689531069 -2.5259070703891444 3.9838765784858996 -1.5925855615676907 3.543146033817381 -1.0350168679860428 C 3.4896251953526765 -0.9673271208895216 3.4400893624406645 -0.9046186307338724 3.3966970797557323 -0.8476662597098974 C 3.350541669522773 -0.7868928975928888 3.3623038034220833 -0.700224542545338 3.422987046943671 -0.6539507120093058 C 3.483745944983321 -0.6077830406419782 3.570411925354499 -0.6195200905551035 3.6167025946442646 -0.680185331897901 C 3.659098625941022 -0.7359200623363282 3.707638207464857 -0.7972448700084005 3.760052099942703 -0.8636062819206893 C 4.240466658240171 -1.471208934108434 5.044275486598943 -2.4884369487339164 4.601386397256045 -3.4386393838549942 Z" fill="#ffffff" transform="matrix(1,0,0,1,0,0)" fill-rule="nonzero"></path><path d=" M 3.2488644432105094 -2.2017932854363833 C 3.325283116639195 -2.2017932854363833 3.3872326915680766 -2.263742860365265 3.3872326915680766 -2.3401615337939488 L 3.3872326915680766 -2.635328681190309 L 3.6824551862637787 -2.635328681190309 C 3.7588738596924625 -2.635328681190309 3.820823434621344 -2.6972782561191906 3.820823434621344 -2.7736969295478744 C 3.820823434621344 -2.850115602976558 3.7588738596924625 -2.9120651779054407 3.6824551862637787 -2.9120651779054407 L 3.3872326915680766 -2.9120651779054407 L 3.3872326915680766 -3.2072323253018 C 3.3872326915680766 -3.283650998730483 3.325283116639195 -3.3456005736593664 3.2488644432105094 -3.3456005736593664 C 3.1724457697818256 -3.3456005736593664 3.110496194852944 -3.283650998730483 3.110496194852944 -3.2072323253018 L 3.110496194852944 -2.9120651779054407 L 2.81527370015724 -2.9120651779054407 C 2.7388550267285563 -2.9120651779054407 2.6769054517996747 -2.850115602976558 2.6769054517996747 -2.7736969295478744 C 2.6769054517996747 -2.6972782561191906 2.7388550267285563 -2.635328681190309 2.81527370015724 -2.635328681190309 L 3.110496194852944 -2.635328681190309 L 3.110496194852944 -2.3401615337939488 C 3.110496194852944 -2.263742860365265 3.1724457697818256 -2.2017932854363833 3.2488644432105094 -2.2017932854363833 Z" fill="#ffffff" transform="matrix(1,0,0,1,0,0)" fill-rule="nonzero"></path></g></g><defs><clipPath id="SvgjsClipPath1001"><path d=" M 1.769375784472073 -4.309473791718171 h 2.9607484310558543 v 4.01699629171817 h -2.9607484310558543 Z"></path></clipPath></defs></svg>