<svg width="14" height="22" viewBox="0 0 14 22" fill="none" xmlns="http://www.w3.org/2000/svg">
<path fill-rule="evenodd" clip-rule="evenodd" d="M6.77077 13.3545C7.14962 13.3553 7.52485 13.2594 7.87496 13.0724C8.22506 12.8854 8.54315 12.611 8.81099 12.2649C9.07883 11.9188 9.29115 11.5079 9.43578 11.0556C9.58041 10.6033 9.6545 10.1186 9.65381 9.62923C9.65933 8.62691 9.36059 7.66169 8.82165 6.94051C8.28271 6.21933 7.54647 5.79961 6.77077 5.77132C6.39192 5.7706 6.01668 5.86648 5.66658 6.05346C5.31647 6.24044 4.99838 6.51484 4.73054 6.86092C4.4627 7.20701 4.25038 7.61798 4.10575 8.07027C3.96112 8.52256 3.88703 9.00727 3.88772 9.49662C3.89974 10.4921 4.20426 11.4445 4.73957 12.1608C5.27489 12.8771 6.00098 13.3038 6.77077 13.3545ZM1.93077 3.24493C3.21883 1.61445 4.953 0.706442 6.75645 0.718207C8.55989 0.729972 10.2869 1.66056 11.5621 3.30776C12.8374 4.95496 13.5578 7.18566 13.5669 9.51512C13.576 11.8446 12.8731 14.0846 11.6108 15.7483L6.77077 22L1.93077 15.7483C0.691052 14.0607 -6.10352e-05 11.823 -6.10352e-05 9.49662C-6.10352e-05 7.17022 0.691052 4.93252 1.93077 3.24493Z" fill="black"/>
</svg>
