<svg width="16" height="16" viewBox="0 0 16 16" fill="none" xmlns="http://www.w3.org/2000/svg">
<path d="M2.40002 2.4C3.10396 1.61828 3.9693 0.998805 4.9362 0.584419C5.9031 0.170034 6.94848 -0.0293697 8.00002 1.20769e-06C9.05157 -0.0293697 10.0969 0.170034 11.0638 0.584419C12.0307 0.998805 12.8961 1.61828 13.6 2.4C14.3817 3.10394 15.0012 3.96928 15.4156 4.93618C15.83 5.90308 16.0294 6.94846 16 8C16.0294 9.05155 15.83 10.0969 15.4156 11.0638C15.0012 12.0307 14.3817 12.8961 13.6 13.6C12.8961 14.3817 12.0307 15.0012 11.0638 15.4156C10.0969 15.83 9.05157 16.0294 8.00002 16C6.94848 16.0294 5.9031 15.83 4.9362 15.4156C3.9693 15.0012 3.10396 14.3817 2.40002 13.6C0.891245 12.124 0.0283433 10.1105 2.40959e-05 8C-0.0293468 6.94846 0.170057 5.90308 0.584442 4.93618C0.998828 3.96928 1.6183 3.10394 2.40002 2.4ZM9.06702 14.4C9.85833 14.2589 10.5701 13.8318 11.067 13.2C11.6133 12.3623 11.9346 11.398 12 10.4C12.0025 10.1021 11.9447 9.80678 11.8301 9.53181C11.7155 9.25684 11.5464 9.00791 11.333 8.8C11.1163 8.5527 10.8501 8.35369 10.5515 8.21587C10.253 8.07806 9.92881 8.00451 9.60002 8H8.26702C7.85541 7.97512 7.45036 7.88499 7.06702 7.733C6.93675 7.61574 6.83352 7.47157 6.76445 7.31048C6.69539 7.14938 6.66214 6.97521 6.66702 6.8C6.66906 6.69689 6.69409 6.59553 6.74028 6.50332C6.78647 6.41112 6.85266 6.33038 6.93402 6.267C7.08082 6.12645 7.26656 6.03341 7.46702 6C7.60085 6.01325 7.73008 6.05599 7.84541 6.12515C7.96074 6.19432 8.05931 6.28819 8.13402 6.4C8.40102 6.533 8.53402 6.667 8.66702 6.667C8.85494 6.68668 9.04376 6.63921 9.20002 6.533C9.30588 6.3766 9.35299 6.1878 9.33302 6C9.2792 5.48963 9.04223 5.01606 8.66602 4.667C9.08855 3.88848 9.31733 3.01965 9.33302 2.134C9.32834 2.06473 9.29871 1.9995 9.24962 1.95041C9.20052 1.90131 9.1353 1.87168 9.06602 1.867C8.7242 1.73082 8.36568 1.64102 8.00002 1.6C6.76798 1.62855 5.56793 1.99788 4.53302 2.667C4.14478 2.99223 3.83515 3.40109 3.62733 3.86296C3.41952 4.32483 3.3189 4.82773 3.33302 5.334C3.32564 5.8071 3.41667 6.27657 3.60036 6.71262C3.78404 7.14867 4.05635 7.54178 4.40002 7.867C5.07281 8.53939 5.9819 8.92198 6.93302 8.933V9.466C6.92005 9.71377 6.96109 9.9614 7.0533 10.1917C7.1455 10.4221 7.28667 10.6296 7.46702 10.8C7.7495 11.2108 8.17916 11.4973 8.66702 11.6V14C8.66702 14.133 8.66702 14.133 8.80002 14.267C8.93302 14.401 8.93302 14.4 9.06702 14.4Z" fill="black"/>
</svg>
